<mxfile host="app.diagrams.net" modified="2022-12-09T15:34:35.683Z" agent="5.0 (Windows NT 10.0; Win64; x64) AppleWebKit/537.36 (KHTML, like Gecko) Chrome/108.0.0.0 Safari/537.36" version="20.6.0" etag="1bp6AAmN0lBQcJvGfRIu" type="github">
  <diagram id="VaPceM4CDEMEdCJh_fux" name="Page-1">
    <mxGraphModel dx="1316" dy="802" grid="1" gridSize="10" guides="1" tooltips="1" connect="1" arrows="1" fold="1" page="1" pageScale="1" pageWidth="1100" pageHeight="850" math="0" shadow="0">
      <root>
        <mxCell id="0" />
        <mxCell id="1" parent="0" />
        <mxCell id="va7eF8Ag3icz-c_re07v-9" style="edgeStyle=orthogonalEdgeStyle;rounded=1;orthogonalLoop=1;jettySize=auto;html=1;exitX=1;exitY=0.5;exitDx=0;exitDy=0;exitPerimeter=0;entryX=0;entryY=0.5;entryDx=0;entryDy=0;entryPerimeter=0;dashed=1;" edge="1" parent="1" source="va7eF8Ag3icz-c_re07v-1" target="va7eF8Ag3icz-c_re07v-8">
          <mxGeometry relative="1" as="geometry" />
        </mxCell>
        <mxCell id="va7eF8Ag3icz-c_re07v-1" value="contacts-integration" style="sketch=0;points=[[0,0,0],[0.25,0,0],[0.5,0,0],[0.75,0,0],[1,0,0],[0,1,0],[0.25,1,0],[0.5,1,0],[0.75,1,0],[1,1,0],[0,0.25,0],[0,0.5,0],[0,0.75,0],[1,0.25,0],[1,0.5,0],[1,0.75,0]];outlineConnect=0;fontColor=#232F3E;gradientColor=#FF4F8B;gradientDirection=north;fillColor=#BC1356;strokeColor=#ffffff;dashed=0;verticalLabelPosition=bottom;verticalAlign=top;align=center;html=1;fontSize=13;fontStyle=1;aspect=fixed;shape=mxgraph.aws4.resourceIcon;resIcon=mxgraph.aws4.sqs;labelBorderColor=none;" vertex="1" parent="1">
          <mxGeometry x="260" y="40" width="60" height="60" as="geometry" />
        </mxCell>
        <mxCell id="va7eF8Ag3icz-c_re07v-6" style="edgeStyle=orthogonalEdgeStyle;rounded=1;orthogonalLoop=1;jettySize=auto;html=1;exitX=1;exitY=0.5;exitDx=0;exitDy=0;entryX=0;entryY=0.25;entryDx=0;entryDy=0;entryPerimeter=0;dashed=1;" edge="1" parent="1" source="va7eF8Ag3icz-c_re07v-2" target="va7eF8Ag3icz-c_re07v-1">
          <mxGeometry relative="1" as="geometry" />
        </mxCell>
        <mxCell id="va7eF8Ag3icz-c_re07v-2" value="create contact" style="rounded=1;whiteSpace=wrap;html=1;" vertex="1" parent="1">
          <mxGeometry x="60" y="30" width="100" height="20" as="geometry" />
        </mxCell>
        <mxCell id="va7eF8Ag3icz-c_re07v-5" style="edgeStyle=orthogonalEdgeStyle;rounded=1;orthogonalLoop=1;jettySize=auto;html=1;exitX=1;exitY=0.5;exitDx=0;exitDy=0;entryX=0;entryY=0.5;entryDx=0;entryDy=0;entryPerimeter=0;dashed=1;" edge="1" parent="1" source="va7eF8Ag3icz-c_re07v-3" target="va7eF8Ag3icz-c_re07v-1">
          <mxGeometry relative="1" as="geometry" />
        </mxCell>
        <mxCell id="va7eF8Ag3icz-c_re07v-3" value="send message" style="rounded=1;whiteSpace=wrap;html=1;" vertex="1" parent="1">
          <mxGeometry x="60" y="60" width="100" height="20" as="geometry" />
        </mxCell>
        <mxCell id="va7eF8Ag3icz-c_re07v-7" style="edgeStyle=orthogonalEdgeStyle;rounded=1;orthogonalLoop=1;jettySize=auto;html=1;exitX=1;exitY=0.5;exitDx=0;exitDy=0;entryX=0;entryY=0.75;entryDx=0;entryDy=0;entryPerimeter=0;dashed=1;" edge="1" parent="1" source="va7eF8Ag3icz-c_re07v-4" target="va7eF8Ag3icz-c_re07v-1">
          <mxGeometry relative="1" as="geometry" />
        </mxCell>
        <mxCell id="va7eF8Ag3icz-c_re07v-4" value="receive message" style="rounded=1;whiteSpace=wrap;html=1;" vertex="1" parent="1">
          <mxGeometry x="60" y="90" width="100" height="20" as="geometry" />
        </mxCell>
        <mxCell id="va7eF8Ag3icz-c_re07v-12" style="edgeStyle=orthogonalEdgeStyle;rounded=1;orthogonalLoop=1;jettySize=auto;html=1;exitX=0.5;exitY=1;exitDx=0;exitDy=0;exitPerimeter=0;entryX=0.5;entryY=0;entryDx=0;entryDy=0;dashed=1;" edge="1" parent="1" source="va7eF8Ag3icz-c_re07v-8" target="va7eF8Ag3icz-c_re07v-10">
          <mxGeometry relative="1" as="geometry" />
        </mxCell>
        <UserObject label="Contacts Integration&#xa;Worker" id="va7eF8Ag3icz-c_re07v-8">
          <mxCell style="outlineConnect=0;dashed=0;verticalLabelPosition=bottom;verticalAlign=top;align=center;shape=mxgraph.aws3.android;fillColor=#EE472A;gradientColor=none;aspect=fixed;labelBackgroundColor=none;fontColor=default;fontStyle=1;fontSize=11;labelPosition=center;" vertex="1" parent="1">
            <mxGeometry x="420" y="36" width="68" height="68" as="geometry" />
          </mxCell>
        </UserObject>
        <mxCell id="va7eF8Ag3icz-c_re07v-10" value="" style="swimlane;startSize=0;" vertex="1" parent="1">
          <mxGeometry x="20" y="170" width="1060" height="390" as="geometry" />
        </mxCell>
        <mxCell id="va7eF8Ag3icz-c_re07v-16" style="edgeStyle=orthogonalEdgeStyle;rounded=1;orthogonalLoop=1;jettySize=auto;html=1;exitX=1;exitY=0.5;exitDx=0;exitDy=0;entryX=0;entryY=0.5;entryDx=0;entryDy=0;" edge="1" parent="va7eF8Ag3icz-c_re07v-10" source="va7eF8Ag3icz-c_re07v-11" target="va7eF8Ag3icz-c_re07v-15">
          <mxGeometry relative="1" as="geometry" />
        </mxCell>
        <mxCell id="va7eF8Ag3icz-c_re07v-11" value="check contact has HubSpotID or last attempt &amp;gt;=24h ago" style="rounded=1;whiteSpace=wrap;html=1;" vertex="1" parent="va7eF8Ag3icz-c_re07v-10">
          <mxGeometry x="25" y="70" width="130" height="60" as="geometry" />
        </mxCell>
        <mxCell id="va7eF8Ag3icz-c_re07v-13" value="" style="ellipse;html=1;shape=startState;fillColor=#000000;strokeColor=#ff0000;" vertex="1" parent="va7eF8Ag3icz-c_re07v-10">
          <mxGeometry x="75" y="10" width="30" height="30" as="geometry" />
        </mxCell>
        <mxCell id="va7eF8Ag3icz-c_re07v-14" value="" style="edgeStyle=orthogonalEdgeStyle;html=1;verticalAlign=bottom;endArrow=open;endSize=8;strokeColor=#ff0000;rounded=1;dashed=1;entryX=0.5;entryY=0;entryDx=0;entryDy=0;" edge="1" source="va7eF8Ag3icz-c_re07v-13" parent="va7eF8Ag3icz-c_re07v-10" target="va7eF8Ag3icz-c_re07v-11">
          <mxGeometry relative="1" as="geometry">
            <mxPoint x="90" y="100" as="targetPoint" />
          </mxGeometry>
        </mxCell>
        <mxCell id="va7eF8Ag3icz-c_re07v-19" value="no" style="edgeStyle=orthogonalEdgeStyle;rounded=1;orthogonalLoop=1;jettySize=auto;html=1;exitX=0.5;exitY=0;exitDx=0;exitDy=0;entryX=0;entryY=0.5;entryDx=0;entryDy=0;" edge="1" parent="va7eF8Ag3icz-c_re07v-10" source="va7eF8Ag3icz-c_re07v-15" target="va7eF8Ag3icz-c_re07v-17">
          <mxGeometry x="-0.9712" y="-10" relative="1" as="geometry">
            <mxPoint as="offset" />
          </mxGeometry>
        </mxCell>
        <mxCell id="va7eF8Ag3icz-c_re07v-15" value="" style="rhombus;whiteSpace=wrap;html=1;" vertex="1" parent="va7eF8Ag3icz-c_re07v-10">
          <mxGeometry x="190" y="82.5" width="40" height="35" as="geometry" />
        </mxCell>
        <mxCell id="va7eF8Ag3icz-c_re07v-17" value="" style="ellipse;html=1;shape=endState;fillColor=#000000;strokeColor=#ff0000;" vertex="1" parent="va7eF8Ag3icz-c_re07v-10">
          <mxGeometry x="1020" y="10" width="30" height="30" as="geometry" />
        </mxCell>
      </root>
    </mxGraphModel>
  </diagram>
</mxfile>
